# xmcd
#
# Track frame offsets:
#	182
#	14240
#	28637
#	42140
#	64495
#	76635
#	92405
#	109667
#	124512
#	136657
#
# Disc length: 2029 seconds
#
# Revision: 1
# Processed by: cddbd v1.4PL0 Copyright (c) Steve Scherf et al.
# Submitted via: audiograbber 1.80
#
DISCID=7507eb0a
DTITLE=Willie Nelson and Waylon Jennings - Old Friends
DYEAR=1900
DGENRE=
TTITLE0=We had  it all
TTITLE1=Why do I have to choose
TTITLE2=Black Jack County chains
TTITLE3='Till I gain control again
TTITLE4=Why baby why
TTITLE5=Old friends
TTITLE6=Take it to the limit
TTITLE7=Would you lay down with me
TTITLE8=No love at all
TTITLE9=Homeward bound
EXTD=
EXTT0=
EXTT1=
EXTT2=
EXTT3=
EXTT4=
EXTT5=
EXTT6=
EXTT7=
EXTT8=
EXTT9=
PLAYORDER=
